# xmcd
#
# Track frame offsets:
#	150
#	14311
#	28957
#	44114
#	59067
#	72952
#	86532
#	101281
#	115526
#	130756
#	145510
#	158161
#	173616
#	188116
#	201864
#	217412
#	232204
#	252170
#
# Disc length: 3546 seconds
#
# Revision: 0
# Processed by: cddbd v1.5.2PL0 Copyright (c) Steve Scherf et al.
# Submitted via: EasyCDDAExtractor 16.0.6.1
#
DISCID=060dd812
DTITLE=Ρεμπέτικο σεργιάνι 1933-46 Οι απαγορ. ουσίες
DYEAR=1900
DGENRE=Ρεμπέτικη
TTITLE0=Εσκενάζυ Ρόζα - Γιαννούσαινα [Σωτήρης Γαβαλάς]
TTITLE1=Βαμβακάρης Μάρκος - Όταν πίνω τουμπεκάκι [Μάρκος Βαμβακάρης]
TTITLE2=Καλυβόπουλος Αντώνης - Παραπονούνται οι μάγκες [Γιάννης Εϊτζιρίδης ή Γ
TTITLE2=ιοβάν Τσαούς]
TTITLE3=Εσκενάζυ Ρόζα - Ένας μάγκας στον τεκέ μου [Κώστας Τζοβένος]
TTITLE4=Παγιουμτζής Στράτος-Κηρομύτης Στέλιος - Όταν καπνίζει ο λουλάς [Γιώργο
TTITLE4=ς Μητσάκης]
TTITLE5=Δημητριάδης Τέτος - Γιαφ γιουφ [Παραδοσιακό]
TTITLE6=Αμπατζή Ρίτα - Ο ξεμάγκας [Βαγγέλης Παπάζογλου]
TTITLE7=Βαμβακάρης Μάρκος - Εφουμάραμ' ένα βράδυ [Μάρκος Βαμβακάρης]
TTITLE8=Δελλιάς Ανέστης - Ο πόνος του πρεζάκια [Ανέστης Δελλιάς]
TTITLE9=Ρούκουνας Κώστας ή Σαμιωτάκης - Πού 'ναι τα χρόνια τα παλιά [Σωτήρης Γ
TTITLE9=αβαλάς]
TTITLE10=Περπινιάδης Στελλάκης - Σα φουμάρω τσιγαράκι [Βαγγέλης Παπάζογλου]
TTITLE11=Παγιουμτζής Στράτος - Σαν εγύριζ' απ' την Πύλο [Βαγγέλης Παπάζογλου]
TTITLE12=Παγιουμτζής Στράτος-Κηρομύτης Στέλιος - Της μαστούρας ο σκοπός [Βασίλ
TTITLE12=ης Τσιτσάνης]
TTITLE13=Σοφρωνίου Βαγγέλης - Ο Μανώλης [Παραδοσιακό]
TTITLE14=Δελλιάς Ανέστης - Σούρα και μαστούρα [Ανέστης Δελλιάς]
TTITLE15=Αμπατζή Ρίτα - Χανουμάκια [Κώστας Καρίπης]
TTITLE16=Κατσαρός Γιώργος - Χτες το βράδυ στου Καρίπη [Παραδοσιακό]
TTITLE17=Βαμβακάρης Μάρκος - Ώρες με θρέφει ο λουλάς [Μάρκος Βαμβακάρης]
EXTD=
EXTT0=
EXTT1=
EXTT2=
EXTT3=
EXTT4=
EXTT5=
EXTT6=
EXTT7=
EXTT8=
EXTT9=
EXTT10=
EXTT11=
EXTT12=
EXTT13=
EXTT14=
EXTT15=
EXTT16=
EXTT17=
PLAYORDER=
